<svg xmlns="http://www.w3.org/2000/svg" version="1.1" xmlns:xlink="http://www.w3.org/1999/xlink" xmlns:svgjs="http://svgjs.dev/svgjs" width="1440" height="560" preserveAspectRatio="none" viewBox="0 0 1440 560"><g mask="url(&quot;#SvgjsMask1007&quot;)" fill="none"><path d="M720 704.12C828.73 694.6 924.54 638.84 1000.09 560.09 1073.87 483.22 1130.79 386.49 1126.95 280 1123.21 176.5 1056.19 90.18 980.64 19.36 908.02-48.75 819.18-92.78 720-101.51 609.94-111.2 493.8-101.85 409.04-30.96 317.78 45.33 267.87 161.1 263.65 280 259.3 403.15 295.92 529.93 386.19 613.81 473.94 695.38 600.63 714.55 720 704.12" fill="rgba(22, 186, 157, 1)"></path><path d="M720 554.43C790.36 548.27 852.35 512.19 901.24 461.24 948.98 411.49 985.8 348.9 983.32 280 980.9 213.03 937.54 157.17 888.65 111.35 841.66 67.28 784.17 38.79 720 33.14 648.79 26.87 573.63 32.92 518.79 78.79 459.74 128.16 427.44 203.07 424.72 280 421.9 359.68 445.59 441.72 504 496 560.79 548.77 642.76 561.18 720 554.43" fill="rgba(85, 168, 153, 1)"></path><path d="M720 404.74C751.98 401.94 780.16 385.54 802.38 362.38 824.08 339.77 840.82 311.32 839.69 280 838.59 249.56 818.88 224.17 796.66 203.34 775.3 183.31 749.17 170.36 720 167.79 687.63 164.94 653.47 167.69 628.54 188.54 601.7 210.98 587.02 245.03 585.78 280 584.5 316.22 595.27 353.51 621.82 378.18 647.63 402.17 684.89 407.81 720 404.74" fill="rgba(134, 179, 171, 1)"></path></g><defs><mask id="SvgjsMask1007"><rect width="1440" height="560" fill="#ffffff"></rect></mask></defs></svg>