<svg xmlns="http://www.w3.org/2000/svg" version="1.1" xmlns:xlink="http://www.w3.org/1999/xlink" xmlns:svgjs="http://svgjs.dev/svgjs" width="1440" height="560" preserveAspectRatio="none" viewBox="0 0 1440 560"><g mask="url(&quot;#SvgjsMask1003&quot;)" fill="none"><path d="M 0,79 C 57.6,106 172.8,227 288,214 C 403.2,201 460.8,17 576,14 C 691.2,11 748.8,194.6 864,199 C 979.2,203.4 1036.8,35.2 1152,36 C 1267.2,36.8 1382.4,169.6 1440,203L1440 560L0 560z" fill="rgba(40, 169, 146, 1)"></path><path d="M 0,502 C 96,477.2 288,385.4 480,378 C 672,370.6 768,457.4 960,465 C 1152,472.6 1344,425.8 1440,416L1440 560L0 560z" fill="rgba(134, 179, 171, 1)"></path></g><defs><mask id="SvgjsMask1003"><rect width="1440" height="560" fill="#ffffff"></rect></mask></defs></svg>